<svg aria-hidden="true" style="position: absolute; width: 0; height: 0; overflow: hidden;" version="1.1" xmlns="http://www.w3.org/2000/svg" xmlns:xlink="http://www.w3.org/1999/xlink">
<defs>
<symbol id="icon-spinner" viewBox="0 0 10 10">
<title>spinner</title>
<path d="M3.75 1.25c0-0.69 0.56-1.25 1.25-1.25s1.25 0.56 1.25 1.25c0 0.69-0.56 1.25-1.25 1.25s-1.25-0.56-1.25-1.25zM6.402 2.348c0-0.69 0.56-1.25 1.25-1.25s1.25 0.56 1.25 1.25c0 0.69-0.56 1.25-1.25 1.25s-1.25-0.56-1.25-1.25zM8.125 5c0-0.345 0.28-0.625 0.625-0.625s0.625 0.28 0.625 0.625c0 0.345-0.28 0.625-0.625 0.625s-0.625-0.28-0.625-0.625zM7.027 7.652c0-0.345 0.28-0.625 0.625-0.625s0.625 0.28 0.625 0.625c0 0.345-0.28 0.625-0.625 0.625s-0.625-0.28-0.625-0.625zM4.375 8.75c0 0 0 0 0 0 0-0.345 0.28-0.625 0.625-0.625s0.625 0.28 0.625 0.625c0 0 0 0 0 0 0 0.345-0.28 0.625-0.625 0.625s-0.625-0.28-0.625-0.625zM1.723 7.652c0 0 0 0 0 0 0-0.345 0.28-0.625 0.625-0.625s0.625 0.28 0.625 0.625c0 0 0 0 0 0 0 0.345-0.28 0.625-0.625 0.625s-0.625-0.28-0.625-0.625zM1.411 2.348c0 0 0 0 0 0 0-0.518 0.42-0.937 0.938-0.937s0.937 0.42 0.937 0.937c0 0 0 0 0 0 0 0.518-0.42 0.938-0.938 0.938s-0.938-0.42-0.938-0.938zM0.547 5c0-0.388 0.315-0.703 0.703-0.703s0.703 0.315 0.703 0.703c0 0.388-0.315 0.703-0.703 0.703s-0.703-0.315-0.703-0.703z"></path>
</symbol>
<symbol id="icon-menu" viewBox="0 0 10 10">
<title>menu</title>
<path d="M0.625 1.875h8.75v1.875h-8.75zM0.625 4.375h8.75v1.875h-8.75zM0.625 6.875h8.75v1.875h-8.75z"></path>
</symbol>
<symbol id="icon-cross" viewBox="0 0 10 10">
<title>cross</title>
<path d="M9.909 8.034c-0-0-0-0-0-0l-3.034-3.034 3.034-3.034c0-0 0-0 0-0 0.033-0.033 0.056-0.071 0.071-0.111 0.041-0.111 0.018-0.241-0.072-0.33l-1.433-1.433c-0.089-0.089-0.219-0.113-0.33-0.071-0.041 0.015-0.079 0.039-0.112 0.071 0 0-0 0-0 0l-3.034 3.034-3.034-3.034c-0-0-0-0-0-0-0.033-0.033-0.071-0.056-0.111-0.071-0.111-0.041-0.241-0.018-0.33 0.071l-1.433 1.433c-0.089 0.089-0.113 0.219-0.072 0.33 0.015 0.041 0.039 0.079 0.071 0.111 0 0 0 0 0 0l3.034 3.034-3.034 3.034c-0 0-0 0-0 0-0.033 0.033-0.056 0.071-0.071 0.111-0.041 0.111-0.018 0.241 0.072 0.33l1.433 1.433c0.089 0.089 0.219 0.113 0.33 0.072 0.041-0.015 0.079-0.039 0.111-0.071 0-0 0-0 0-0l3.034-3.034 3.034 3.034c0 0 0 0 0 0 0.033 0.033 0.071 0.056 0.111 0.071 0.111 0.041 0.241 0.018 0.33-0.072l1.433-1.433c0.089-0.089 0.113-0.219 0.072-0.33-0.015-0.041-0.039-0.079-0.071-0.111z"></path>
</symbol>
<symbol id="icon-play3" viewBox="0 0 10 10">
<title>play3</title>
<path d="M1.875 1.25l6.25 3.75-6.25 3.75z"></path>
</symbol>
<symbol id="icon-pause2" viewBox="0 0 10 10">
<title>pause2</title>
<path d="M1.25 1.25h3.125v7.5h-3.125zM5.625 1.25h3.125v7.5h-3.125z"></path>
</symbol>
<symbol id="icon-backward2" viewBox="0 0 10 10">
<title>backward2</title>
<path d="M5.625 1.563v3.125l3.125-3.125v6.875l-3.125-3.125v3.125l-3.438-3.438z"></path>
</symbol>
<symbol id="icon-forward3" viewBox="0 0 10 10">
<title>forward3</title>
<path d="M5 8.438v-3.125l-3.125 3.125v-6.875l3.125 3.125v-3.125l3.438 3.438z"></path>
</symbol>
<symbol id="icon-loop" viewBox="0 0 10 10">
<title>loop</title>
<path d="M1.25 3.125h6.25v1.875l2.5-2.5-2.5-2.5v1.875h-7.5v3.75h1.25zM8.75 6.875h-6.25v-1.875l-2.5 2.5 2.5 2.5v-1.875h7.5v-3.75h-1.25z"></path>
</symbol>
<symbol id="icon-loop2" viewBox="0 0 10 10">
<title>loop2</title>
<path d="M8.688 1.624c-0.914-0.998-2.228-1.624-3.688-1.624-2.761 0-5 2.239-5 5h0.938c0-2.244 1.819-4.063 4.063-4.063 1.201 0 2.281 0.522 3.024 1.351l-1.462 1.462h3.437v-3.438l-1.312 1.312z"></path>
<path d="M9.063 5c0 2.244-1.819 4.063-4.063 4.063-1.201 0-2.281-0.522-3.024-1.351l1.462-1.462h-3.438v3.438l1.312-1.312c0.914 0.998 2.228 1.624 3.688 1.624 2.761 0 5-2.239 5-5h-0.938z"></path>
</symbol>
<symbol id="icon-shuffle" viewBox="0 0 10 10">
<title>shuffle</title>
<path d="M7.5 6.875h-0.991l-1.563-1.563 1.563-1.563h0.991v1.563l2.188-2.188-2.188-2.188v1.563h-1.25c-0.166 0-0.325 0.066-0.442 0.183l-1.746 1.746-1.746-1.746c-0.117-0.117-0.276-0.183-0.442-0.183h-1.875v1.25h1.616l1.563 1.563-1.563 1.563h-1.616v1.25h1.875c0.166 0 0.325-0.066 0.442-0.183l1.746-1.746 1.746 1.746c0.117 0.117 0.276 0.183 0.442 0.183h1.25v1.563l2.188-2.188-2.188-2.188v1.563z"></path>
</symbol>
</defs>
</svg>
