<!-- Generated by IcoMoon.io -->
<svg version="1.1" xmlns="http://www.w3.org/2000/svg" width="10" height="10" viewBox="0 0 10 10">
<title>loop2</title>
<path d="M8.688 1.624c-0.914-0.998-2.228-1.624-3.688-1.624-2.761 0-5 2.239-5 5h0.938c0-2.244 1.819-4.063 4.063-4.063 1.201 0 2.281 0.522 3.024 1.351l-1.462 1.462h3.437v-3.438l-1.312 1.312z"></path>
<path d="M9.063 5c0 2.244-1.819 4.063-4.063 4.063-1.201 0-2.281-0.522-3.024-1.351l1.462-1.462h-3.438v3.438l1.312-1.312c0.914 0.998 2.228 1.624 3.688 1.624 2.761 0 5-2.239 5-5h-0.938z"></path>
</svg>
