<!-- Generated by IcoMoon.io -->
<svg version="1.1" xmlns="http://www.w3.org/2000/svg" width="10" height="10" viewBox="0 0 10 10">
<title>shuffle</title>
<path d="M7.5 6.875h-0.991l-1.563-1.563 1.563-1.563h0.991v1.563l2.188-2.188-2.188-2.188v1.563h-1.25c-0.166 0-0.325 0.066-0.442 0.183l-1.746 1.746-1.746-1.746c-0.117-0.117-0.276-0.183-0.442-0.183h-1.875v1.25h1.616l1.563 1.563-1.563 1.563h-1.616v1.25h1.875c0.166 0 0.325-0.066 0.442-0.183l1.746-1.746 1.746 1.746c0.117 0.117 0.276 0.183 0.442 0.183h1.25v1.563l2.188-2.188-2.188-2.188v1.563z"></path>
</svg>
