<!-- Generated by IcoMoon.io -->
<svg version="1.1" xmlns="http://www.w3.org/2000/svg" width="10" height="10" viewBox="0 0 10 10">
<title>spinner</title>
<path d="M3.75 1.25c0-0.69 0.56-1.25 1.25-1.25s1.25 0.56 1.25 1.25c0 0.69-0.56 1.25-1.25 1.25s-1.25-0.56-1.25-1.25zM6.402 2.348c0-0.69 0.56-1.25 1.25-1.25s1.25 0.56 1.25 1.25c0 0.69-0.56 1.25-1.25 1.25s-1.25-0.56-1.25-1.25zM8.125 5c0-0.345 0.28-0.625 0.625-0.625s0.625 0.28 0.625 0.625c0 0.345-0.28 0.625-0.625 0.625s-0.625-0.28-0.625-0.625zM7.027 7.652c0-0.345 0.28-0.625 0.625-0.625s0.625 0.28 0.625 0.625c0 0.345-0.28 0.625-0.625 0.625s-0.625-0.28-0.625-0.625zM4.375 8.75c0 0 0 0 0 0 0-0.345 0.28-0.625 0.625-0.625s0.625 0.28 0.625 0.625c0 0 0 0 0 0 0 0.345-0.28 0.625-0.625 0.625s-0.625-0.28-0.625-0.625zM1.723 7.652c0 0 0 0 0 0 0-0.345 0.28-0.625 0.625-0.625s0.625 0.28 0.625 0.625c0 0 0 0 0 0 0 0.345-0.28 0.625-0.625 0.625s-0.625-0.28-0.625-0.625zM1.411 2.348c0 0 0 0 0 0 0-0.518 0.42-0.937 0.938-0.937s0.937 0.42 0.937 0.937c0 0 0 0 0 0 0 0.518-0.42 0.938-0.938 0.938s-0.938-0.42-0.938-0.938zM0.547 5c0-0.388 0.315-0.703 0.703-0.703s0.703 0.315 0.703 0.703c0 0.388-0.315 0.703-0.703 0.703s-0.703-0.315-0.703-0.703z"></path>
</svg>
